<svg width="20" height="20" fill="none" xmlns="http://www.w3.org/2000/svg"><path d="M17.602 0H2.398C1.09 0 0 1.035 0 2.343v15.314C0 18.965 1.09 20 2.398 20h15.204C18.91 20 20 18.965 20 17.657V2.343C20 1.035 18.91 0 17.602 0zm-3.215 3.106c0-.327.272-.6.6-.6h1.907c.327 0 .6.273.6.6V4.96c0 .327-.273.6-.6.6H15.04a.605.605 0 01-.6-.6l-.054-1.853zm-4.36 3.052c2.126 0 3.87 1.69 3.87 3.815s-1.744 3.814-3.87 3.814c-2.125 0-3.869-1.689-3.869-3.814 0-2.071 1.744-3.815 3.87-3.815zm8.066 11.335c0 .327-.273.6-.6.6H2.507a.605.605 0 01-.6-.6V8.12H4.36c-.327.49-.436 1.362-.436 1.907 0 3.325 2.725 6.05 6.103 6.05 3.379 0 6.104-2.726 6.104-6.05 0-.545-.055-1.417-.49-1.907h2.506l-.054 9.373z" fill="#B3B3B3"/></svg>