<svg width="20" height="18" fill="none" xmlns="http://www.w3.org/2000/svg"><path d="M19.455 1.016c-.817.49-1.69.818-2.616 1.036A4.032 4.032 0 0013.842.744c-2.289 0-4.087 1.907-4.087 4.196 0 .327.054.654.109.98-3.433-.217-6.43-1.907-8.447-4.468a4.555 4.555 0 00-.545 2.125c0 1.472.708 2.725 1.853 3.488-.654 0-1.308-.218-1.853-.545v.11c0 2.016 1.417 3.76 3.27 4.14a3.514 3.514 0 01-1.09.164c-.273 0-.545 0-.763-.054.545 1.69 2.016 2.888 3.815 2.943A8.03 8.03 0 01.98 15.62c-.327 0-.654 0-.981-.055a11.33 11.33 0 006.267 1.908c7.575 0 11.662-6.43 11.662-11.99V4.94c.818-.6 1.526-1.308 2.071-2.18-.708.327-1.526.545-2.343.654.817-.6 1.471-1.417 1.798-2.398z" fill="#B3B3B3"/></svg>