<svg width="35" height="25" fill="none" xmlns="http://www.w3.org/2000/svg"><path d="M26.355 15.979a4.378 4.378 0 00-4.373 4.373 4.378 4.378 0 004.373 4.372 4.378 4.378 0 004.373-4.372 4.378 4.378 0 00-4.373-4.373zm0 6.559a2.189 2.189 0 01-2.186-2.186c0-1.206.98-2.187 2.186-2.187s2.187.98 2.187 2.187c0 1.205-.98 2.186-2.187 2.186zm-14.941-6.559a4.378 4.378 0 00-4.373 4.373 4.378 4.378 0 004.373 4.372 4.378 4.378 0 004.373-4.372 4.378 4.378 0 00-4.373-4.373zm0 6.559a2.189 2.189 0 01-2.186-2.186c0-1.206.98-2.187 2.186-2.187s2.187.98 2.187 2.187c0 1.205-.98 2.186-2.187 2.186zM29.3 3.462a1.094 1.094 0 00-.977-.602h-5.758v2.186h5.084l2.977 5.921 1.954-.982-3.28-6.523z" fill="#fff"/><path d="M23.076 19.295h-8.273v2.186h8.273v-2.186zm-14.942 0h-3.79a1.093 1.093 0 100 2.186h3.79a1.093 1.093 0 100-2.186zm26.483-6.684l-2.15-2.77a1.092 1.092 0 00-.864-.422h-7.944V1.766c0-.604-.49-1.093-1.094-1.093H4.345a1.093 1.093 0 100 2.186h17.127v7.653c0 .604.49 1.093 1.093 1.093h8.502l1.593 2.051v5.639h-3.025a1.093 1.093 0 100 2.186h4.118c.604 0 1.093-.49 1.093-1.093v-7.106c0-.243-.08-.479-.23-.67zM8.062 13.756h-5.03a1.093 1.093 0 100 2.186h5.03a1.093 1.093 0 100-2.186zm2.514-4.301H1.247a1.093 1.093 0 100 2.187h9.33a1.093 1.093 0 100-2.187z" fill="#fff"/><path d="M12.362 5.155h-9.33a1.093 1.093 0 100 2.187h9.33a1.093 1.093 0 100-2.187z" fill="#fff"/></svg>