<svg width="68" height="68" fill="none" xmlns="http://www.w3.org/2000/svg"><path d="M67.58 64.784c-.105-.135-2.63-3.336-7.98-6.493-2.61-1.541-6.209-3.24-10.814-4.482a69.333 69.333 0 002.564-13.706c.541-6.407.157-12.667-1.142-18.607-1.629-7.443-4.704-14.392-9.14-20.655a1.992 1.992 0 00-3.251 0 57.452 57.452 0 00-3.787 6.122A57.406 57.406 0 0030.243.84a1.992 1.992 0 00-3.251 0c-4.437 6.262-7.512 13.212-9.14 20.655-1.3 5.94-1.684 12.2-1.143 18.607a69.254 69.254 0 002.646 13.981c-4.245 1.204-7.67 2.76-10.234 4.18C3.467 61.392.623 64.55.504 64.682A1.992 1.992 0 001.992 68h64.016a1.992 1.992 0 001.572-3.216zM20.963 26.958l13.363-9.08a52.198 52.198 0 011.046 3.84L20.53 31.804c.073-1.56.212-3.18.433-4.846zm1.01-5.504a52.327 52.327 0 016.646-15.88 52.556 52.556 0 014.322 8.428l-10.967 7.452zm-1.477 15.19L36.18 25.987c.645 4.373.776 8.924.388 13.64a65.613 65.613 0 01-2.244 12.389 57.109 57.109 0 00-11.085 1.126 65.327 65.327 0 01-2.558-13.375 61.201 61.201 0 01-.184-3.123zm14.177 19.353c10.801 0 18.316 3.054 22.718 5.617a33.152 33.152 0 013.58 2.402H7.435c4.744-3.346 13.779-8.019 27.24-8.019zm4.771-50.423c6.314 9.995 8.986 21.436 7.947 34.053a65.47 65.47 0 01-2.508 13.298 54.31 54.31 0 00-6.45-.792 69.732 69.732 0 002.092-12.03c.541-6.407.157-12.667-1.142-18.607a56.366 56.366 0 00-3.169-9.964 52.205 52.205 0 013.23-5.958z" fill="#000"/></svg>