<svg width="58" height="73" fill="none" xmlns="http://www.w3.org/2000/svg"><path d="M29 0C18.913 0 0 7.684 0 29.456S29 73 29 73s29-21.772 29-43.544S39.087 0 29 0z" fill="#FEDB3F"/><path d="M17.375 28.764c-.77 0-1.447-.136-2.034-.406-.586-.27-1.037-.646-1.355-1.125-.317-.492-.476-1.058-.476-1.697 0-.54.11-1.033.33-1.475a2.84 2.84 0 01.915-1.051 2.274 2.274 0 011.283-.388c.427 0 .787.111 1.08.332.293.21.476.504.55.886-.635 0-1.142.172-1.52.516-.38.332-.568.787-.568 1.365 0 .528.158.953.476 1.272.317.32.739.48 1.264.48.647 0 1.178-.215 1.593-.646.427-.443.641-.996.641-1.66 0-.578-.159-1.125-.476-1.641-.317-.516-.794-1.143-1.429-1.881-.659-.762-1.16-1.414-1.502-1.955a3.467 3.467 0 01-.494-1.807c0-.64.177-1.211.531-1.715.354-.517.843-.922 1.465-1.218.623-.295 1.325-.442 2.107-.442.989 0 1.776.233 2.362.7.599.468.898 1.095.898 1.882 0 .516-.128.934-.385 1.254a1.23 1.23 0 01-1.007.48 1.32 1.32 0 01-1.117-.572 1.8 1.8 0 00.55-.683 2.04 2.04 0 00.2-.885c0-.393-.116-.707-.348-.94-.232-.234-.549-.351-.952-.351-.488 0-.891.178-1.209.535-.305.344-.458.787-.458 1.328 0 .491.14.953.422 1.383.28.418.72.959 1.318 1.623.489.528.88.983 1.173 1.364.305.382.561.824.769 1.328.22.492.33 1.027.33 1.605 0 .787-.22 1.5-.66 2.139-.427.64-1.02 1.143-1.776 1.512-.745.37-1.576.554-2.491.554zm7.771-.222c-.586 0-1.062-.184-1.428-.553-.355-.369-.532-.922-.532-1.66 0-.307.05-.707.147-1.198l1.245-5.92h2.638l-1.319 6.27a2.661 2.661 0 00-.055.516c0 .504.183.756.55.756.342 0 .635-.141.879-.424.244-.295.44-.694.586-1.198l1.245-5.92h2.638l-1.319 6.27a2.299 2.299 0 00-.073.59c0 .246.055.424.165.535.122.098.317.147.586.147.342 0 .635-.147.879-.442.256-.295.458-.689.604-1.18h.77c-.452 1.327-1.014 2.231-1.685 2.71-.66.468-1.325.701-1.997.701-.525 0-.946-.147-1.264-.442-.305-.295-.488-.732-.55-1.31-.414.677-.854 1.137-1.318 1.383a2.878 2.878 0 01-1.392.37zm8.68-9.332h2.637l-.238 1.144a7.63 7.63 0 011.117-.848 2.168 2.168 0 011.1-.296c.39 0 .695.136.915.406.232.27.348.597.348.978a1.4 1.4 0 01-.348.94c-.232.27-.556.406-.97.406-.27 0-.452-.062-.55-.184a1.71 1.71 0 01-.202-.572 1.692 1.692 0 00-.11-.35c-.036-.074-.103-.111-.2-.111-.257 0-.477.055-.66.166-.171.098-.397.276-.678.535l-1.465 7.008h-2.638l1.942-9.221zm3.992 13.832c-.574 0-1.074-.19-1.502-.572a1.77 1.77 0 01-.66-1.42c0-.528.135-.965.404-1.309.268-.344.616-.62 1.044-.83.427-.197.995-.406 1.703-.627l2.216-10.53c.245-1.18.672-1.998 1.282-2.453a3.401 3.401 0 012.052-.683c.574 0 1.074.191 1.502.572.44.369.66.842.66 1.42 0 .283-.02.535-.056.756h-.86a8.38 8.38 0 00.036-.498.564.564 0 00-.202-.46.752.752 0 00-.494-.167c-.256 0-.507.117-.751.35-.244.222-.421.61-.531 1.163l-.312 1.456h1.338l-.129.738h-1.355l-2.106 9.959c-.245 1.193-.666 2.01-1.264 2.453a3.246 3.246 0 01-2.015.682zm-.421-1.641c.488 0 .836-.48 1.044-1.439l.238-1.07c-.647.222-1.142.474-1.484.757a1.42 1.42 0 00-.53 1.143c0 .148.072.283.219.406a.732.732 0 00.513.203zM10.342 44.679c-.83 0-1.465-.203-1.905-.608-.44-.418-.66-1.002-.66-1.752 0-.37.043-.72.129-1.052l1.96-9.24 2.71-.368-.879 4.15c.342-.21.623-.345.843-.406.22-.074.44-.11.66-.11 1.44 0 2.16 1.05 2.16 3.153 0 .848-.165 1.758-.494 2.73a5.72 5.72 0 01-1.612 2.47c-.745.689-1.715 1.033-2.912 1.033zm1.025-1.789c.38 0 .733-.233 1.063-.7.33-.48.592-1.07.787-1.771a7.744 7.744 0 00.293-2.047c0-.492-.085-.91-.256-1.254-.17-.344-.409-.517-.714-.517-.183 0-.391.031-.623.093-.22.049-.372.129-.458.24l-1.007 4.684a1.76 1.76 0 00-.055.424c0 .565.323.848.97.848zm7.351 1.752c-.903 0-1.618-.233-2.143-.7-.525-.468-.787-1.206-.787-2.214 0-.836.17-1.764.513-2.784.341-1.02.891-1.9 1.648-2.638.757-.75 1.71-1.125 2.857-1.125 1.563 0 2.345.984 2.345 2.951v.019a.733.733 0 00.201.018c.403 0 .867-.104 1.392-.313a7.276 7.276 0 001.429-.794l.165.498c-.355.382-.819.707-1.392.978a7.214 7.214 0 01-1.85.553c-.098 1.119-.348 2.096-.751 2.932-.403.836-.922 1.482-1.557 1.937a3.48 3.48 0 01-2.07.682zm.733-1.66c.293 0 .586-.166.88-.498.292-.344.549-.805.768-1.383.22-.59.379-1.241.477-1.954-.33-.074-.495-.332-.495-.775 0-.504.19-.836.568-.996-.025-.406-.086-.682-.183-.83-.098-.16-.269-.24-.513-.24-.403 0-.794.296-1.172.886-.379.59-.684 1.297-.916 2.12-.232.824-.348 1.55-.348 2.177 0 .59.067.99.201 1.198.135.197.379.295.733.295zm6.84 1.697c-.696 0-1.276-.24-1.74-.72-.464-.479-.696-1.229-.696-2.25 0-.909.177-1.862.531-2.858.367-1.008.904-1.856 1.612-2.545.72-.7 1.575-1.05 2.564-1.05.5 0 .873.085 1.117.257.245.172.367.4.367.683v.129l.201-.978h2.638l-1.319 6.27a2.295 2.295 0 00-.073.59c0 .53.25.794.75.794.343 0 .636-.16.88-.48.256-.32.458-.737.604-1.254h.77c-.452 1.328-1.014 2.232-1.686 2.711-.659.468-1.324.701-1.996.701-.513 0-.928-.141-1.245-.424-.306-.295-.489-.72-.55-1.273a5.207 5.207 0 01-1.19 1.236c-.428.307-.94.461-1.539.461zm1.19-1.789c.306 0 .605-.141.898-.424.305-.295.513-.695.623-1.199l.879-4.168a.716.716 0 00-.183-.46c-.122-.16-.312-.24-.568-.24-.488 0-.928.288-1.319.866-.39.566-.696 1.254-.916 2.066-.22.799-.33 1.506-.33 2.12 0 .615.086 1.009.257 1.181a.928.928 0 00.66.258zm7.498-7.543h2.638l-.238 1.144a7.635 7.635 0 011.117-.849 2.168 2.168 0 011.099-.295c.39 0 .696.136.916.406.232.27.348.596.348.977 0 .357-.116.67-.348.941-.232.27-.556.406-.971.406-.269 0-.452-.062-.55-.185a1.707 1.707 0 01-.2-.571 1.703 1.703 0 00-.11-.35c-.037-.074-.105-.111-.202-.111-.257 0-.477.055-.66.166-.17.098-.396.276-.677.534l-1.466 7.008h-2.637l1.941-9.22zm7.84 9.332c-.697 0-1.277-.24-1.74-.72-.465-.479-.697-1.229-.697-2.25 0-.909.177-1.862.531-2.858.367-1.008.904-1.856 1.612-2.545.72-.7 1.575-1.05 2.564-1.05.501 0 .873.085 1.118.257.244.172.366.4.366.683v.074l.897-4.242 2.711-.369-2.106 9.959a2.088 2.088 0 00-.073.535c0 .491.25.737.75.737.22 0 .416-.037.587-.11-.05.614-.269 1.088-.66 1.42-.378.32-.83.48-1.355.48-.488 0-.904-.124-1.246-.37-.33-.258-.55-.645-.659-1.162-.733 1.02-1.6 1.531-2.6 1.531zm1.19-1.789c.268 0 .537-.117.806-.35.28-.234.488-.56.622-.978l.074-.295.897-4.223c-.11-.43-.36-.645-.75-.645-.49 0-.929.288-1.32.866-.39.566-.696 1.254-.915 2.066-.22.799-.33 1.506-.33 2.12 0 .615.085 1.009.256 1.181a.929.929 0 00.66.258z" fill="#292929"/></svg>