<svg width="38" height="38" fill="none" xmlns="http://www.w3.org/2000/svg"><path d="M18.213.326l-6.67 6.67a1.113 1.113 0 000 1.574l3.15 3.149c.264.263.626.367.968.311v3.63h-3.63a1.113 1.113 0 00-.312-.967l-3.149-3.15a1.113 1.113 0 00-1.574 0l-6.67 6.67a1.113 1.113 0 000 1.574l6.67 6.67c.434.434 1.14.434 1.574 0l3.15-3.15c.257-.257.368-.62.31-.967h3.63v3.63a1.111 1.111 0 00-.967.311l-3.15 3.15a1.113 1.113 0 000 1.574l6.67 6.669c.435.435 1.14.435 1.575 0l6.669-6.67a1.114 1.114 0 000-1.574l-3.15-3.149a1.11 1.11 0 00-.967-.311v-3.63h3.63c-.057.348.054.71.312.967l3.149 3.15c.434.434 1.14.434 1.574 0l6.67-6.67a1.113 1.113 0 000-1.574l-6.67-6.67a1.114 1.114 0 00-1.574 0l-3.15 3.15c-.257.258-.368.62-.31.967h-3.63v-3.63c.34.056.703-.047.967-.31l3.149-3.15a1.113 1.113 0 000-1.574l-6.67-6.67a1.113 1.113 0 00-1.574 0zm4.308 9.031l-.507-.506c-.698-.699-1.9-.204-1.9.787v7.135c0 .615.498 1.114 1.113 1.114h7.135c.989 0 1.488-1.2.788-1.9l-.507-.507 1.575-1.575L35.313 19l-5.095 5.095-1.575-1.575.507-.506c.698-.699.203-1.9-.788-1.9h-7.135c-.615 0-1.113.498-1.113 1.113v7.135c0 .992 1.202 1.485 1.9.787l.506-.506 1.575 1.575L19 35.312l-5.094-5.095 1.574-1.574.507.506c.698.699 1.9.204 1.9-.787v-7.135c0-.615-.498-1.114-1.113-1.114H9.638c-.988 0-1.487 1.2-.787 1.9l.507.507-1.575 1.575L2.688 19l5.095-5.095 1.575 1.575-.507.506c-.699.7-.203 1.9.787 1.9h7.136c.615 0 1.113-.498 1.113-1.113V9.638c0-.988-1.2-1.488-1.9-.787l-.507.506-1.574-1.574L19 2.688l5.095 5.095-1.574 1.574z" fill="#fff"/></svg>