<svg width="12" height="12" fill="none" xmlns="http://www.w3.org/2000/svg"><path d="M11.974 9.298c-.034-.102-.25-.253-.648-.452a19.972 19.972 0 00-.46-.256 32.7 32.7 0 01-.997-.562 11.171 11.171 0 00-.213-.15 2.395 2.395 0 00-.303-.183.558.558 0 00-.242-.06c-.114.001-.256.082-.426.244a4.15 4.15 0 00-.469.528c-.142.19-.293.367-.452.529-.159.162-.29.243-.392.243a.58.58 0 01-.191-.043 1.989 1.989 0 01-.175-.072c-.04-.02-.108-.06-.205-.12a5.297 5.297 0 00-.162-.098 8.956 8.956 0 01-2.002-1.483A8.951 8.951 0 013.154 5.36a4.945 4.945 0 00-.098-.162c-.06-.096-.1-.164-.12-.204a1.848 1.848 0 01-.072-.175.577.577 0 01-.043-.192c0-.102.081-.232.243-.392a4.96 4.96 0 01.529-.451c.19-.142.366-.298.528-.469.162-.17.243-.312.243-.426 0-.08-.02-.16-.06-.243a2.37 2.37 0 00-.183-.302l-.15-.214a18.685 18.685 0 01-.263-.455c-.091-.162-.19-.343-.299-.542a20.244 20.244 0 00-.255-.46c-.2-.397-.35-.613-.452-.647A.477.477 0 002.523 0c-.153 0-.354.028-.6.085a3.375 3.375 0 00-.585.18C1.054.382.753.73.435 1.303.145 1.838 0 2.366 0 2.889a3.291 3.291 0 00.137.938c.05.181.092.316.123.404.031.088.09.246.175.473.085.228.136.367.153.418a7.72 7.72 0 00.708 1.491c.448.728 1.06 1.48 1.836 2.255.776.775 1.527 1.387 2.254 1.836.438.273.935.509 1.492.708.051.017.19.068.417.153.228.085.385.144.473.175.088.031.223.072.405.124a3.272 3.272 0 00.938.136c.522 0 1.05-.145 1.585-.435.574-.318.92-.619 1.04-.903a3.35 3.35 0 00.178-.584c.057-.247.086-.447.086-.6 0-.08-.009-.14-.026-.18z" fill="#292929"/></svg>