<svg width="24" height="24" fill="none" xmlns="http://www.w3.org/2000/svg"><path d="M22.983 21.137L20.888 8.621a2.447 2.447 0 00-2.416-2.043h-3.148c.37-.643.58-1.388.58-2.181A4.401 4.401 0 0011.509 0a4.402 4.402 0 00-4.397 4.397c0 .793.211 1.538.58 2.181H4.545a2.447 2.447 0 00-2.416 2.044L.034 21.14A2.454 2.454 0 002.45 24h18.119a2.455 2.455 0 002.414-2.863zM11.509 2.561c1.011 0 1.835.824 1.835 1.836a1.837 1.837 0 01-1.835 1.835 1.838 1.838 0 01-1.836-1.835c0-1.013.823-1.836 1.836-1.836z" fill="#000"/></svg>